<?xml version="1.0" encoding="UTF-8"?>
<!DOCTYPE svg PUBLIC "-//W3C//DTD SVG 1.1//EN" "http://www.w3.org/Graphics/SVG/1.1/DTD/svg11.dtd">
<!-- Creator: CorelDRAW 2017 -->
<svg xmlns="http://www.w3.org/2000/svg" xml:space="preserve" width="9.84252in" height="9.84252in" version="1.1" style="shape-rendering:geometricPrecision; text-rendering:geometricPrecision; image-rendering:optimizeQuality; fill-rule:evenodd; clip-rule:evenodd"
viewBox="0 0 9842.52 9842.52"
 xmlns:xlink="http://www.w3.org/1999/xlink">
 <defs>
  <style type="text/css">
   <![CDATA[
    .str0 {stroke:#B9B900;stroke-width:138.89;stroke-miterlimit:2.61313}
    .str1 {stroke:#201E1E;stroke-width:3;stroke-miterlimit:2.61313}
    .str2 {stroke:#D61A19;stroke-width:3;stroke-miterlimit:2.61313}
    .fil0 {fill:#B9B900}
    .fil1 {fill:#201E1E;fill-rule:nonzero}
    .fil2 {fill:#D61A19;fill-rule:nonzero}
   ]]>
  </style>
 </defs>
 <g id="Layer_x0020_1">
  <metadata id="CorelCorpID_0Corel-Layer"/>
  <circle class="fil0 str0" cx="4921.26" cy="4921.26" r="4527.56"/>
  <path class="fil1 str1" d="M1872.69 6511.46l0 142.83 -51.51 0 0 640.39 51.51 0 0 142.83 -259.9 0 0 -926.04 259.9 0zm70.44 0l407.41 0 0 184.98 -166.24 0 0 176.78 147.51 0 0 175.61 -147.51 0 0 388.68 -241.17 0 0 -926.04zm696.58 0l0 926.04 -237.66 0 0 -926.04 237.66 0zm605.26 433.75l0 185.95c0,68.29 -3.51,118.24 -10.34,150.24 -6.83,31.81 -21.46,61.46 -43.9,89.17 -22.44,27.7 -51.31,48 -86.63,61.27 -35.31,13.07 -75.7,19.7 -121.36,19.7 -51.12,0 -94.44,-5.66 -129.76,-16.78 -35.51,-11.31 -63.02,-28.29 -82.54,-50.93 -19.71,-22.83 -33.76,-50.34 -42.15,-82.54 -8.39,-32.2 -12.48,-80.59 -12.48,-144.98l0 -194.54c0,-70.63 7.61,-125.66 22.83,-165.46 15.22,-39.61 42.73,-71.42 82.34,-95.42 39.61,-24 90.34,-36.09 152,-36.09 51.7,0 96.19,7.8 133.46,23.22 37.07,15.42 65.76,35.52 86.05,60.3 20.1,24.78 33.95,50.34 41.37,76.68 7.41,26.34 11.12,66.34 11.12,120.19zm-230.63 -57.17c0,-38.83 -2.15,-63.41 -6.24,-73.37 -4.29,-10.15 -13.27,-15.22 -27.12,-15.22 -13.85,0 -23.02,5.07 -27.7,15.22 -4.49,9.95 -6.83,34.54 -6.83,73.37l0 342.44c0,35.9 2.34,59.32 6.83,70.05 4.68,10.93 13.66,16.39 27.12,16.39 13.85,0 22.83,-4.88 27.31,-14.83 4.49,-9.95 6.63,-31.22 6.63,-64l0 -350.05zm1052.68 -209.17l-91.51 758.63 -251.12 0c-12.88,-92.68 -28.88,-215.02 -47.8,-367.02 -7.22,66.93 -16.39,134.24 -27.71,201.95l-24.59 165.07 -249.95 0 -97.56 -758.63 197.66 0c2.34,19.9 19.31,164.88 51.12,435.12 3.31,-28.09 20.29,-173.26 51.31,-435.12l191.41 0 47.61 435.12c7.61,-127.22 25.17,-272.39 52.68,-435.12l198.44 0zm45.07 -167.41l242.54 0c65.56,0 115.9,5.07 151.22,15.41 35.12,10.34 61.66,25.17 79.42,44.49 17.76,19.51 29.66,43.12 36.09,70.63 6.24,27.71 9.37,70.44 9.37,128.39l0 80.59c0,58.93 -6.05,102.05 -18.34,128.97 -12.09,27.12 -34.54,48 -66.93,62.44 -32.58,14.44 -75.12,21.66 -127.61,21.66l-64.58 0 0 373.46 -241.17 0 0 -926.04zm241.17 158.05l0 235.9c6.83,0.39 12.68,0.59 17.56,0.59 22.05,0 37.27,-5.46 45.85,-16.39 8.39,-10.73 12.69,-33.37 12.69,-67.71l0 -76.29c0,-31.61 -4.88,-52.29 -14.83,-61.85 -9.76,-9.56 -30.24,-14.24 -61.27,-14.24zm862.82 401.56l-299.7 0 0 164.49c0,34.34 2.54,56.58 7.42,66.54 5.07,9.95 14.63,14.83 28.88,14.83 17.76,0 29.66,-6.64 35.51,-19.71 6.05,-13.27 8.97,-38.83 8.97,-76.68l0 -100.3 218.93 0 0 56.2c0,47.02 -2.93,83.12 -8.78,108.29 -6.05,25.17 -19.9,52.1 -41.56,80.78 -21.66,28.69 -49.37,50.15 -82.73,64.59 -33.37,14.24 -75.12,21.46 -125.46,21.46 -48.78,0 -91.91,-7.02 -129.37,-21.27 -37.27,-14.05 -66.34,-33.37 -87.22,-57.95 -20.88,-24.59 -35.12,-51.71 -43.12,-81.37 -8,-29.46 -12.09,-72.39 -12.09,-128.98l0 -221.46c0,-66.34 8.97,-118.63 26.93,-157.07 17.95,-38.24 47.22,-67.71 88,-88 40.98,-20.49 87.8,-30.63 140.88,-30.63 64.78,0 118.24,12.29 160.39,36.88 42.15,24.58 71.81,57.17 88.78,97.76 16.97,40.39 25.36,97.56 25.36,171.12l0 100.49zm-230.63 -122.93l0 -55.41c0,-39.42 -2.15,-64.59 -6.44,-76.1 -4.29,-11.51 -13.07,-17.17 -26.34,-17.17 -16.39,0 -26.54,4.88 -30.44,14.63 -3.9,9.76 -5.85,35.9 -5.85,78.63l0 55.41 69.07 0zm535.22 -269.27l-8.19 99.9c33.76,-71.8 82.54,-109.66 146.34,-113.95l0 266.93c-42.34,0 -73.56,5.66 -93.46,17.17 -19.9,11.51 -32,27.32 -36.68,47.8 -4.49,20.3 -6.83,67.32 -6.83,141.07l0 299.7 -230.63 0 0 -758.63 229.46 0zm505.75 -167.41l0 117.07c-48.19,0 -76.68,2.15 -85.27,6.64 -8.78,4.48 -13.07,17.17 -13.07,38.05l0 24.39 98.34 0 0 120.58 -56.19 0 0 619.31 -230.63 0 0 -619.31 -46.83 0 0 -120.58 46.83 0c0,-50.15 1.76,-83.71 5.07,-100.49 3.51,-16.98 12.1,-32 25.56,-45.07 13.66,-13.27 32.59,-23.42 57.17,-30.24 24.39,-6.83 62.44,-10.34 114.15,-10.34l84.87 0zm565.46 433.75l0 185.95c0,68.29 -3.51,118.24 -10.34,150.24 -6.83,31.81 -21.46,61.46 -43.9,89.17 -22.44,27.7 -51.31,48 -86.63,61.27 -35.31,13.07 -75.7,19.7 -121.36,19.7 -51.12,0 -94.44,-5.66 -129.76,-16.78 -35.51,-11.31 -63.02,-28.29 -82.54,-50.93 -19.71,-22.83 -33.76,-50.34 -42.15,-82.54 -8.39,-32.2 -12.48,-80.59 -12.48,-144.98l0 -194.54c0,-70.63 7.61,-125.66 22.83,-165.46 15.22,-39.61 42.73,-71.42 82.34,-95.42 39.61,-24 90.34,-36.09 152,-36.09 51.7,0 96.19,7.8 133.46,23.22 37.07,15.42 65.76,35.52 86.05,60.3 20.1,24.78 33.95,50.34 41.37,76.68 7.41,26.34 11.12,66.34 11.12,120.19zm-230.63 -57.17c0,-38.83 -2.15,-63.41 -6.24,-73.37 -4.29,-10.15 -13.27,-15.22 -27.12,-15.22 -13.85,0 -23.02,5.07 -27.7,15.22 -4.49,9.95 -6.83,34.54 -6.83,73.37l0 342.44c0,35.9 2.34,59.32 6.83,70.05 4.68,10.93 13.66,16.39 27.12,16.39 13.85,0 22.83,-4.88 27.31,-14.83 4.49,-9.95 6.63,-31.22 6.63,-64l0 -350.05zm536.39 -209.17l-8.19 99.9c33.76,-71.8 82.54,-109.66 146.34,-113.95l0 266.93c-42.34,0 -73.56,5.66 -93.46,17.17 -19.9,11.51 -32,27.32 -36.68,47.8 -4.49,20.3 -6.83,67.32 -6.83,141.07l0 299.7 -230.63 0 0 -758.63 229.46 0zm417.76 0l-3.51 72.2c17.95,-28.69 39.22,-50.34 64,-64.59 24.58,-14.44 52.87,-21.66 84.48,-21.66 61.66,0 110.05,28.68 145.56,86.24 19.31,-28.69 41.17,-50.34 65.56,-64.59 24.39,-14.44 51.31,-21.66 81.17,-21.66 39.02,0 71.61,9.56 97.17,28.68 25.76,18.93 42.15,42.34 49.37,70.05 7.22,27.52 10.93,72.39 10.93,134.63l0 539.31 -223.61 0 0 -494.63c0,-64.78 -2.15,-104.78 -6.63,-120.2 -4.29,-15.41 -14.44,-23.22 -30.63,-23.22 -16.39,0 -26.93,7.61 -31.61,22.83 -4.88,15.22 -7.22,55.41 -7.22,120.59l0 494.63 -223.61 0 0 -481.95c0,-74.34 -1.76,-119.02 -5.46,-133.85 -3.51,-14.83 -13.66,-22.24 -30.05,-22.24 -10.34,0 -18.93,3.9 -26.34,11.7 -7.22,7.81 -11.12,17.37 -11.9,28.69 -0.78,11.12 -1.17,35.12 -1.17,71.61l0 526.05 -223.61 0 0 -758.63 227.12 0zm654.44 758.63l0 -142.83 51.51 0 0 -640.39 -51.51 0 0 -142.83 259.9 0 0 926.04 -259.9 0z"/>
  <path class="fil2 str2" d="M1912.74 4258.82c-54.19,60.36 -138.13,168.17 -251.83,323.15 -113.42,154.69 -193.16,254.36 -239.2,298.72 -46.04,44.36 -83.94,66.54 -113.42,66.54 -22.74,0 -44.64,-16.85 -65.98,-50.54 -21.34,-33.69 -49.13,-101.91 -83.1,-204.39 -70.19,-208.88 -114.27,-329.32 -132.23,-361.05 -6.74,18.53 -14.04,49.13 -22.18,91.24 -17.69,88.72 -40.99,197.09 -69.91,324.83 -56.71,245.09 -88.72,407.37 -96.3,487.1 -1.12,9.82 -10.11,20.49 -26.67,32 -16.85,11.51 -30.32,17.13 -40.99,17.13 -19.65,0 -37.9,-9.83 -54.46,-29.48 -16.85,-19.65 -25.27,-39.02 -25.27,-57.55 0,-48.29 16,-132.52 47.73,-252.68l71.59 -269.8c43.8,-169.85 71.03,-294.79 81.42,-375.08 10.39,-80.01 15.72,-142.9 15.72,-188.94 0,-47.73 37.62,-71.59 112.58,-71.59 16,0 32.57,13.76 50.26,41.55 17.41,27.52 28.92,51.94 34.53,72.72 7.02,20.78 15.72,44.07 25.55,69.91l110.06 308.54c43.52,126.06 70.19,197.09 80.3,213.37 10.11,16 18.53,24.15 24.99,24.15 28.07,-5.89 126.9,-126.34 297.03,-361.04 189.23,-260.54 297.31,-390.53 323.99,-390.53 21.9,0 46.32,8.43 72.99,25.83 26.39,17.13 39.87,32.29 39.87,44.64 0,5.62 -16,126.06 -47.73,361.33 -11.51,87.04 -22.18,191.75 -32.29,313.6 -9.83,122.13 -14.6,190.91 -14.6,206.07 0,28.07 4.77,59.24 14.6,93.77 8.98,30.88 13.2,55.31 13.2,74.12 0,14.88 -2.81,36.22 -8.14,64.57 -5.62,28.07 -17.41,44.64 -35.66,49.69 -18.53,5.05 -33.13,7.3 -44.08,7.3 -57.55,0 -86.47,-47.73 -86.47,-143.74 0,-87.88 19.09,-302.37 56.71,-644.04 2.81,-27.52 4.21,-44.36 4.21,-51.1 0,-4.21 3.37,-22.74 9.83,-55.03 5.06,-27.51 7.58,-50.53 7.58,-69.06 0,-18.25 -1.4,-30.32 -4.21,-36.22zm631.69 1010.7c-74.96,0 -137.01,-28.35 -185.86,-85.35 -48.85,-56.99 -73.28,-127.46 -73.28,-211.41 0,-141.5 47.73,-281.03 142.9,-418.32 94.89,-137.29 208.88,-206.07 341.67,-206.07 87.59,0 158.91,33.69 213.37,101.35 54.47,67.38 81.98,147.68 81.98,240.89 0,142.62 -56.43,274.57 -169.01,396.42 -112.86,121.85 -229.93,182.49 -351.78,182.49zm-114.27 -318.09c0,55.31 11.51,100.51 34.81,135.6 23.3,35.09 54.19,52.78 92.65,52.78 81.7,0 163.68,-44.92 245.94,-134.48 82.26,-89.84 123.25,-189.51 123.25,-299 0,-67.66 -15.72,-122.13 -47.17,-164.24 -31.44,-41.83 -73.84,-62.89 -127.18,-62.89 -88.16,0 -163.96,54.19 -227.41,162.56 -63.17,108.09 -94.89,211.41 -94.89,309.67zm1386.91 -355.43c-28.64,0 -59.8,18.53 -93.49,55.87 -33.69,37.34 -85.07,121 -154.13,250.99 -90.96,174.35 -149.92,273.45 -176.31,297.59 -26.67,24.15 -48.85,36.22 -66.26,36.22 -64.85,0 -97.14,-31.16 -97.14,-93.77 0,-26.11 4.49,-63.45 13.2,-111.74 30.04,-165.65 45.2,-340.27 45.2,-523.88 0,-21.06 8.98,-44.08 26.67,-69.63 17.97,-25.55 34.81,-38.18 50.54,-38.18 28.64,0 48.85,8.7 60.92,26.39 12.07,17.41 18.25,52.78 18.25,106.12 0,55.31 -16.57,169.3 -49.41,341.96 -10.95,56.99 -16.56,93.21 -16.56,108.65 0,8.7 2.24,13.19 6.74,13.19 8.14,0 46.32,-65.69 114.27,-196.52 68.5,-133.36 128.58,-227.13 179.96,-281.31 51.66,-54.47 108.37,-81.42 170.41,-81.42 49.41,0 89.56,22.46 120.44,67.38 30.88,44.92 53.62,126.9 67.94,245.94 15.44,135.32 29.2,219.83 41.55,252.96 12.35,33.13 32,49.69 58.68,49.69 17.13,0 38.46,-5.89 64.29,-17.97 4.21,-2.24 7.58,-3.37 9.83,-3.37 23.58,0 35.37,13.76 35.37,40.99 0,24.15 -16.28,49.97 -48.57,76.93 -32.29,27.23 -71.31,40.71 -116.79,40.71 -46.61,0 -82.54,-18.53 -108.09,-55.31 -25.55,-37.06 -45.76,-135.88 -60.64,-296.75 -15.16,-161.15 -47.44,-241.73 -96.86,-241.73zm821.76 -468.85c-11.51,0 -20.21,-12.35 -26.39,-37.06 -2.25,-7.58 -5.06,-16 -8.98,-25.55 -14.88,-35.37 -22.18,-66.54 -22.18,-92.93 0,-21.9 12.92,-44.08 39.03,-66.82 26.11,-22.74 55.03,-34.25 86.75,-34.25 16,0 33.69,6.18 53.62,18.53 19.65,12.35 29.48,24.15 29.48,35.65 0,18.25 -6.74,48.85 -20.22,92.37 -13.48,43.24 -34.81,72.44 -64.01,87.59 -29.48,14.88 -51.66,22.46 -67.1,22.46zm-107.81 918.9c0,41.55 5.89,88.44 17.41,140.66 2.25,9.83 3.09,17.97 3.09,24.43 0,10.11 -8.98,22.74 -26.95,38.46 -18.25,15.44 -37.34,23.3 -57.56,23.3 -53.34,0 -79.73,-48.85 -79.73,-146.27 0,-101.07 20.78,-260.54 62.33,-478.68 14.32,-76.37 21.33,-123.25 21.33,-140.66 0,-34.53 6.46,-64.01 19.09,-88.44 12.63,-24.43 30.32,-36.78 53.34,-36.78 28.08,0 49.98,6.74 66.26,20.22 16.28,13.48 24.15,28.35 24.15,44.92 0,16.28 -3.65,38.19 -11.51,64.85 -40.99,144.87 -66.54,248.46 -76.37,311.07 -9.83,62.33 -14.88,136.73 -14.88,222.92zm664.54 -647.41c56.43,-4.49 109.78,-9.55 159.47,-15.72 49.41,-5.33 90.68,-8.14 123.53,-8.14 41.55,0 67.94,3.93 78.89,11.51 10.95,7.58 16.56,21.06 16.56,40.43 0,44.36 -31.16,68.5 -92.93,72.15 -79.73,5.05 -152.73,11.79 -219.83,20.78 -66.82,8.7 -102.76,16 -108.09,21.61 -5.06,5.9 -21.62,71.03 -49.69,195.69 -28.07,124.93 -42.11,205.79 -42.11,243.13 0,60.36 8.14,100.51 23.86,120.44 16,20.22 39.87,30.04 71.59,30.04 47.17,0 112.86,-35.38 196.8,-106.13 32.29,-28.92 57.28,-43.52 74.68,-43.52 23.58,0 35.37,12.63 35.37,37.9 0,39.59 -37.9,90.68 -113.98,153.29 -75.8,62.89 -153.57,94.33 -233.02,94.33 -132.8,0 -199.05,-78.33 -199.05,-234.43 0,-56.43 13.76,-144.03 40.99,-262.5 26.95,-117.91 40.43,-188.67 40.43,-212.25 0,-8.14 -6.74,-12.35 -19.65,-12.35l-85.63 7.58c-70.19,0 -105.28,-28.07 -105.28,-83.94 0,-31.72 16,-47.73 48.57,-47.73l169.29 0c11.51,0 21.62,-5.33 30.6,-15.72 8.7,-10.39 21.62,-45.2 38.46,-104.72 17.12,-59.52 32.28,-118.48 45.2,-176.59 13.19,-57.56 39.02,-86.19 77.48,-86.19 23.58,0 41.83,8.14 55.03,24.7 13.2,16.29 19.65,31.73 19.65,46.04 0,7.58 -9.83,46.89 -29.48,117.64l-47.73 172.66zm695.14 870.89c-74.96,0 -137.01,-28.35 -185.86,-85.35 -48.85,-56.99 -73.28,-127.46 -73.28,-211.41 0,-141.5 47.73,-281.03 142.9,-418.32 94.89,-137.29 208.88,-206.07 341.67,-206.07 87.59,0 158.91,33.69 213.37,101.35 54.47,67.38 81.98,147.68 81.98,240.89 0,142.62 -56.43,274.57 -169.01,396.42 -112.86,121.85 -229.93,182.49 -351.78,182.49zm-114.27 -318.09c0,55.31 11.51,100.51 34.81,135.6 23.3,35.09 54.19,52.78 92.65,52.78 81.7,0 163.68,-44.92 245.94,-134.48 82.26,-89.84 123.25,-189.51 123.25,-299 0,-67.66 -15.72,-122.13 -47.17,-164.24 -31.44,-41.83 -73.84,-62.89 -127.18,-62.89 -88.16,0 -163.96,54.19 -227.41,162.56 -63.17,108.09 -94.89,211.41 -94.89,309.67zm992.74 -49.41c5.61,-9.83 12.07,-23.58 19.93,-41.27 37.34,-85.35 71.59,-152.45 102.76,-201.02 31.16,-48.57 65.69,-94.89 103.31,-139.26 37.34,-44.64 71.87,-78.33 102.76,-101.35 30.88,-23.02 58.96,-39.02 84.22,-48.01 25.27,-8.98 49.69,-13.76 73.28,-13.76 47.73,0 86.47,14.6 116.79,43.24 30.04,28.92 45.2,62.33 45.2,100.79 0,17.13 -5.33,32.29 -16,46.04 -10.67,13.76 -26.95,20.5 -48.85,20.5 -23.02,0 -44.36,-10.11 -63.45,-30.32 -19.65,-20.21 -40.43,-30.32 -61.76,-30.32 -56.99,0 -135.89,69.06 -236.67,207.19 -101.07,138.13 -162.56,290.3 -184.45,456.5 -5.33,42.68 -15.72,71.03 -31.17,84.79 -15.44,13.48 -37.06,20.5 -64.85,20.5 -26.95,0 -46.33,-19.93 -58.4,-60.08 -12.07,-40.15 -18.25,-107.53 -18.25,-202.42 0,-25.55 1.4,-82.54 4.21,-170.13 3.09,-103.6 9.83,-187.26 19.65,-250.99 1.69,-10.39 4.49,-34.81 8.14,-72.99 3.93,-42.39 8.7,-71.59 14.6,-88.16 5.61,-16.28 17.41,-31.72 35.37,-46.04 17.69,-14.32 37.06,-21.34 57.83,-21.34 20.22,0 35.66,6.46 45.76,19.37 10.11,12.91 15.16,26.67 15.16,41.55 0,21.33 -5.61,51.38 -16.56,90.4 -12.63,43.24 -19.94,73.28 -22.18,89.56 -1.69,18.81 -4.49,38.18 -8.98,58.4 -5.61,23.58 -10.95,85.63 -16.56,185.85l-0.84 30.6 0 22.18zm1395.89 47.73c0,55.87 -49.41,123.25 -148.24,202.42 -99.11,78.89 -201.3,118.2 -306.58,118.2 -88.16,0 -156.38,-25.83 -204.39,-78.05 -48.01,-51.94 -71.87,-124.65 -71.87,-217.86 0,-156.94 52.78,-306.02 158.63,-447.52 105.84,-141.5 221.79,-212.25 347.29,-212.25 40.99,0 74.68,13.48 100.79,40.43 25.83,26.67 39.03,59.24 39.03,96.86 0,84.5 -41.55,165.36 -124.37,242.85 -82.82,77.21 -193.44,153.29 -332.13,227.69 -28.63,14.88 -42.67,33.97 -42.67,57.56 0,45.48 12.91,81.98 39.31,109.49 26.39,27.52 65.41,40.99 116.79,40.99 117.91,0 238.36,-65.13 361.04,-195.69 18.25,-17.97 32.01,-27.23 41.27,-27.23 17.41,0 26.11,14.04 26.11,42.11zm-571.61 -128.3c232.74,-138.13 348.98,-249.31 348.98,-333.25 0,-32.85 -14.88,-49.41 -44.64,-49.41 -50.25,0 -107.24,37.06 -170.7,111.18 -63.17,74.12 -107.81,164.52 -133.64,271.49zm513.21 -832.43c-2.24,1.13 -5.05,2.81 -8.14,5.06 -3.93,1.96 -8.7,4.49 -14.88,7.3 -36.78,16.85 -112.86,69.63 -228.53,157.78 -47.73,36.78 -83.94,63.17 -108.65,79.17l-19.09 11.51c-14.04,0 -26.67,-7.02 -37.62,-20.78 -10.95,-13.48 -16.56,-27.51 -16.56,-41.83 0,-28.07 42.11,-73.84 126.34,-137.29 84.22,-63.73 159.74,-113.98 226.56,-151.33 25.27,-14.31 44.08,-26.67 56.71,-37.06 9.26,-7.58 14.32,-10.67 14.88,-8.98 9.27,0 20.22,10.11 32.57,30.32 12.35,20.21 18.25,35.94 18.25,46.89 0,6.74 -5.06,17.13 -15.44,31.16 -10.39,14.32 -19.37,23.58 -26.39,28.07zm396.42 913c5.61,-9.83 12.07,-23.58 19.93,-41.27 37.34,-85.35 71.59,-152.45 102.76,-201.02 31.16,-48.57 65.69,-94.89 103.31,-139.26 37.34,-44.64 71.87,-78.33 102.76,-101.35 30.88,-23.02 58.96,-39.02 84.22,-48.01 25.27,-8.98 49.69,-13.76 73.28,-13.76 47.73,0 86.47,14.6 116.79,43.24 30.04,28.92 45.2,62.33 45.2,100.79 0,17.13 -5.33,32.29 -16,46.04 -10.67,13.76 -26.95,20.5 -48.85,20.5 -23.02,0 -44.36,-10.11 -63.45,-30.32 -19.65,-20.21 -40.43,-30.32 -61.76,-30.32 -56.99,0 -135.89,69.06 -236.67,207.19 -101.07,138.13 -162.56,290.3 -184.45,456.5 -5.33,42.68 -15.72,71.03 -31.17,84.79 -15.44,13.48 -37.06,20.5 -64.85,20.5 -26.95,0 -46.33,-19.93 -58.4,-60.08 -12.07,-40.15 -18.25,-107.53 -18.25,-202.42 0,-25.55 1.4,-82.54 4.21,-170.13 3.09,-103.6 9.83,-187.26 19.65,-250.99 1.69,-10.39 4.49,-34.81 8.14,-72.99 3.93,-42.39 8.7,-71.59 14.6,-88.16 5.61,-16.28 17.41,-31.72 35.37,-46.04 17.69,-14.32 37.06,-21.34 57.83,-21.34 20.22,0 35.66,6.46 45.76,19.37 10.11,12.91 15.16,26.67 15.16,41.55 0,21.33 -5.61,51.38 -16.56,90.4 -12.63,43.24 -19.94,73.28 -22.18,89.56 -1.69,18.81 -4.49,38.18 -8.98,58.4 -5.61,23.58 -10.95,85.63 -16.56,185.85l-0.84 30.6 0 22.18z"/>
 </g>
</svg>
