<?xml version="1.0" encoding="utf-8"?>
<!-- Generator: Adobe Illustrator 16.0.0, SVG Export Plug-In . SVG Version: 6.00 Build 0)  -->
<!DOCTYPE svg PUBLIC "-//W3C//DTD SVG 1.1//EN" "http://www.w3.org/Graphics/SVG/1.1/DTD/svg11.dtd">
<svg version="1.1" id="Calque_1" xmlns="http://www.w3.org/2000/svg" xmlns:xlink="http://www.w3.org/1999/xlink" x="0px" y="0px"
	 width="708.662px" height="708.661px" viewBox="0 0 708.662 708.661" enable-background="new 0 0 708.662 708.661"
	 xml:space="preserve">
<circle fill="#0C93FC" cx="354.331" cy="354.331" r="325.984"/>
<text transform="matrix(1 0 0 1 129.8347 551.1196)" font-family="'Impact'" font-size="84.5487">[FlowDesign]</text>
<g>
	<path d="M327.139,176.865c3.149,0,5.697,2.558,5.697,5.708c0,3.148-2.548,5.704-5.697,5.704c-3.157,0-5.705-2.555-5.705-5.704
		C321.434,179.423,323.983,176.865,327.139,176.865z"/>
	<path d="M368.268,176.865c3.156,0,5.691,2.558,5.691,5.708c0,3.148-2.535,5.704-5.691,5.704c-3.154,0-5.705-2.555-5.705-5.704
		C362.563,179.423,365.114,176.865,368.268,176.865z"/>
	<path d="M387.933,227.221c0,0,16.603-71.348,0-71.348h-16.858c-2.32-3.148-9.226-5.603-17.973-6.406l-4.795-0.263
		c-0.236,0-0.424,0-0.634,0c-0.209,0-0.385,0-0.554,0c-1.618-5.111-7.512-20.426-20.689-24.196c-1.2-2.704-3.917-4.639-7.114-4.639
		c-4.336,0-7.816,3.519-7.816,7.829c0,4.296,3.479,7.829,7.803,7.829c3.634,0,6.689-2.521,7.544-5.894
		c8.951,3.715,13.63,14.432,15.41,19.361c-8.727,0.775-15.699,3.29-18.004,6.426h-16.813c-16.63,0,0,71.3,0,71.3H387.933z
		 M368.268,169.988c6.973,0,12.598,5.652,12.598,12.598s-5.625,12.624-12.598,12.624c-6.959,0-12.61-5.666-12.61-12.624
		C355.658,175.626,361.309,169.988,368.268,169.988z M347.674,205.393h14.821v9.332h-29.644v-9.332H347.674z M327.112,169.988
		c7.001,0,12.645,5.652,12.645,12.598s-5.644,12.624-12.645,12.624c-6.965,0-12.543-5.666-12.543-12.624
		C314.569,175.626,320.147,169.988,327.112,169.988z"/>
	<g>
		<path d="M279.947,275.91c0.507-8.18,3.521-15.652,6.448-20.225l-7.143-20.493c-9.527,7.722-18.49,26.118-18.449,43.004
			c1.671-1.544,3.647-2.784,5.838-3.506C271.268,273.064,275.997,273.671,279.947,275.91z"/>
		<path d="M281.903,286.558c-1.583-5.584-7.396-8.84-12.994-7.243c-5.577,1.592-8.808,7.418-7.222,13.003
			c1.092,3.843,4.241,6.419,7.855,7.243l-2.19-11.034h14.722C282.005,287.866,282.086,287.219,281.903,286.558z"/>
	</g>
	<g>
		<path d="M416.189,275.91c-0.513-8.18-3.521-15.652-6.447-20.225l7.136-20.493c9.534,7.722,18.503,26.118,18.449,43.004
			c-1.673-1.544-3.641-2.784-5.84-3.506C424.861,273.064,420.153,273.671,416.189,275.91z"/>
		<path d="M414.232,286.558c1.593-5.584,7.42-8.84,13.003-7.243c5.584,1.592,8.819,7.418,7.229,13.003
			c-1.093,3.843-4.235,6.419-7.863,7.243l2.197-11.034h-14.728C414.153,287.866,414.045,287.219,414.232,286.558z"/>
	</g>
	<path d="M455.504,316.109h-37.846l5.181-23.617h-21.85l4.261-38.668l1.322-19.146l-33.798-0.04l-49.809,0.04h-33.819l1.241,19.146
		l4.323,38.668h-21.378l4.707,23.617H243.87l-39.04,135.721h286.28L455.504,316.109z M411.643,301.502l-16.428,74.894h-95.934
		l-14.971-74.894H411.643z M250.654,325.118h29.193l12.029,60.275h110.595l13.205-60.275h32.867l30.873,117.705h-262.63
		L250.654,325.118z"/>
	<path d="M339.676,358.174c3.177-0.12,4.391-2.05,8.261-2.05c3.864,0,4.943,2.05,8.342,1.998c3.426-0.056,5.598-3.116,7.729-6.179
		c2.4-3.561,3.425-7,3.48-7.176c-0.08-0.025-6.691-2.561-6.771-10.21c-0.053-6.378,5.206-9.44,5.447-9.588
		c-2.952-4.344-7.564-4.936-9.224-5.003c-3.905-0.393-7.66,2.306-9.638,2.306c-2.001,0-5.07-2.253-8.327-2.199
		c-4.283,0.067-8.234,2.496-10.447,6.325c-4.43,7.714-1.112,19.151,3.211,25.398C333.849,354.857,336.365,358.311,339.676,358.174z"
		/>
	<path d="M356.979,307.759c-2.557,0.108-5.617,1.701-7.424,3.818c-1.631,1.875-3.069,4.895-2.685,7.808
		c2.832,0.217,5.72-1.429,7.487-3.586C356.125,313.668,357.29,310.714,356.979,307.759z"/>
</g>
</svg>
