<?xml version="1.0" encoding="UTF-8"?>
<!DOCTYPE svg PUBLIC "-//W3C//DTD SVG 1.1//EN" "http://www.w3.org/Graphics/SVG/1.1/DTD/svg11.dtd">
<!-- Creator: CorelDRAW 2017 -->
<svg xmlns="http://www.w3.org/2000/svg" xml:space="preserve" width="9.84252in" height="9.84252in" version="1.1" style="shape-rendering:geometricPrecision; text-rendering:geometricPrecision; image-rendering:optimizeQuality; fill-rule:evenodd; clip-rule:evenodd"
viewBox="0 0 9842.52 9842.52"
 xmlns:xlink="http://www.w3.org/1999/xlink">
 <defs>
  <style type="text/css">
   <![CDATA[
    .str0 {stroke:#D61A19;stroke-width:138.89;stroke-miterlimit:2.61313}
    .str1 {stroke:#201E1E;stroke-width:3;stroke-miterlimit:2.61313}
    .str2 {stroke:#FFC20F;stroke-width:3;stroke-miterlimit:2.61313}
    .fil0 {fill:#D61A19}
    .fil1 {fill:#201E1E;fill-rule:nonzero}
    .fil2 {fill:#FFC20F;fill-rule:nonzero}
   ]]>
  </style>
 </defs>
 <g id="Layer_x0020_1">
  <metadata id="CorelCorpID_0Corel-Layer"/>
  <circle class="fil0 str0" cx="4921.26" cy="4921.26" r="4527.56"/>
  <path class="fil1 str1" d="M2004.63 6636.46l0 166.48 -60.04 0 0 746.41 60.04 0 0 166.48 -302.93 0 0 -1079.36 302.93 0zm82.1 0l474.87 0 0 215.6 -193.77 0 0 206.05 171.94 0 0 204.69 -171.94 0 0 453.03 -281.1 0 0 -1079.36zm811.91 0l0 1079.36 -277 0 0 -1079.36 277 0zm705.48 505.57l0 216.74c0,79.6 -4.09,137.82 -12.05,175.12 -7.96,37.07 -25.02,71.64 -51.17,103.93 -26.15,32.3 -59.81,55.95 -100.98,71.41 -41.17,15.24 -88.24,22.97 -141.46,22.97 -59.58,0 -110.07,-6.59 -151.24,-19.56 -41.39,-13.19 -73.46,-32.98 -96.2,-59.36 -22.97,-26.61 -39.35,-58.67 -49.13,-96.2 -9.78,-37.52 -14.56,-93.93 -14.56,-168.98l0 -226.74c0,-82.33 8.87,-146.46 26.61,-192.86 17.74,-46.17 49.81,-83.24 95.97,-111.21 46.17,-27.98 105.3,-42.07 177.17,-42.07 60.27,0 112.12,9.1 155.56,27.06 43.21,17.97 76.64,41.39 100.3,70.28 23.43,28.88 39.57,58.68 48.21,89.38 8.65,30.7 12.96,77.32 12.96,140.09zm-268.81 -66.64c0,-45.26 -2.5,-73.91 -7.28,-85.51 -5,-11.82 -15.46,-17.74 -31.61,-17.74 -16.15,0 -26.84,5.91 -32.3,17.74 -5.23,11.6 -7.96,40.26 -7.96,85.51l0 399.13c0,41.85 2.73,69.14 7.96,81.65 5.46,12.74 15.92,19.11 31.61,19.11 16.15,0 26.61,-5.69 31.84,-17.29 5.23,-11.6 7.73,-36.39 7.73,-74.59l0 -408zm1226.96 -243.8l-106.66 884.23 -292.7 0c-15.01,-108.03 -33.66,-250.62 -55.72,-427.79 -8.41,78.01 -19.1,156.47 -32.3,235.39l-28.65 192.4 -291.33 0 -113.71 -884.23 230.38 0c2.73,23.2 22.52,192.18 59.59,507.16 3.87,-32.75 23.65,-201.96 59.81,-507.16l223.1 0 55.49 507.16c8.87,-148.28 29.34,-317.49 61.41,-507.16l231.29 0zm52.54 -195.13l198.54 0c132.36,0 221.97,5 268.82,15.24 46.85,10.24 85.06,36.39 114.62,78.46 29.57,41.85 44.35,108.94 44.35,200.82 0,83.92 -10.46,140.32 -31.39,169.2 -20.7,28.88 -61.86,46.17 -123.26,51.85 55.49,13.87 93.02,32.29 112.12,55.49 19.11,22.97 30.93,44.35 35.48,63.68 4.78,19.33 7.05,72.55 7.05,159.65l0 284.96 -260.63 0 0 -359.11c0,-57.76 -4.55,-93.47 -13.64,-107.34 -8.87,-13.87 -32.52,-20.7 -70.96,-20.7l0 487.15 -281.1 0 0 -1079.36zm281.1 184.21l0 240.16c31.39,0 53.22,-4.32 65.73,-12.96 12.51,-8.64 18.87,-36.84 18.87,-84.37l0 -59.36c0,-34.34 -6.14,-56.86 -18.19,-67.55 -12.05,-10.69 -34.34,-15.92 -66.41,-15.92zm1054.12 321.35l0 216.74c0,79.6 -4.09,137.82 -12.05,175.12 -7.96,37.07 -25.02,71.64 -51.17,103.93 -26.15,32.3 -59.81,55.95 -100.98,71.41 -41.17,15.24 -88.24,22.97 -141.46,22.97 -59.58,0 -110.07,-6.59 -151.24,-19.56 -41.39,-13.19 -73.46,-32.98 -96.2,-59.36 -22.97,-26.61 -39.35,-58.67 -49.13,-96.2 -9.78,-37.52 -14.56,-93.93 -14.56,-168.98l0 -226.74c0,-82.33 8.87,-146.46 26.61,-192.86 17.74,-46.17 49.81,-83.24 95.97,-111.21 46.17,-27.98 105.3,-42.07 177.17,-42.07 60.27,0 112.12,9.1 155.56,27.06 43.21,17.97 76.64,41.39 100.3,70.28 23.43,28.88 39.57,58.68 48.21,89.38 8.65,30.7 12.96,77.32 12.96,140.09zm-268.81 -66.64c0,-45.26 -2.5,-73.91 -7.28,-85.51 -5,-11.82 -15.46,-17.74 -31.61,-17.74 -16.15,0 -26.84,5.91 -32.3,17.74 -5.23,11.6 -7.96,40.26 -7.96,85.51l0 399.13c0,41.85 2.73,69.14 7.96,81.65 5.46,12.74 15.92,19.11 31.61,19.11 16.15,0 26.61,-5.69 31.84,-17.29 5.23,-11.6 7.73,-36.39 7.73,-74.59l0 -408zm626.56 -438.93l0 255.85c22.29,-25.93 47.07,-45.26 74.59,-58 27.29,-12.74 57.08,-19.1 89.15,-19.1 36.84,0 68.91,5.69 96.2,17.28 27.06,11.6 47.76,27.75 62.09,48.67 14.33,20.93 22.74,41.39 25.7,61.41 2.96,20.01 4.32,62.77 4.32,128.04l0 398.91c0,64.82 -4.32,113.26 -12.96,144.87 -8.87,31.84 -29.11,59.36 -61.18,82.78 -32.3,23.43 -70.28,35.02 -114.4,35.02 -31.61,0 -61.18,-7.05 -88.69,-20.92 -27.29,-13.87 -52.54,-34.57 -75.28,-62.31l-17.28 66.86 -251.08 0 0 -1079.36 268.82 0zm83.24 446.21c0,-45.71 -2.96,-75.5 -8.87,-89.61 -5.69,-13.87 -17.28,-20.92 -34.34,-20.92 -16.83,0 -27.52,6.14 -32.52,18.42 -5,12.05 -7.5,42.98 -7.5,92.11l0 381.39c0,47.53 2.73,78.01 8.41,91.2 5.69,13.42 16.83,20.02 33.66,20.02 17.06,0 28.2,-6.82 33.43,-20.7 5.23,-13.65 7.73,-46.85 7.73,-99.16l0 -372.75zm965.42 59.36l0 216.74c0,79.6 -4.09,137.82 -12.05,175.12 -7.96,37.07 -25.02,71.64 -51.17,103.93 -26.15,32.3 -59.81,55.95 -100.98,71.41 -41.17,15.24 -88.24,22.97 -141.46,22.97 -59.58,0 -110.07,-6.59 -151.24,-19.56 -41.39,-13.19 -73.46,-32.98 -96.2,-59.36 -22.97,-26.61 -39.35,-58.67 -49.13,-96.2 -9.78,-37.52 -14.56,-93.93 -14.56,-168.98l0 -226.74c0,-82.33 8.87,-146.46 26.61,-192.86 17.74,-46.17 49.81,-83.24 95.97,-111.21 46.17,-27.98 105.3,-42.07 177.17,-42.07 60.27,0 112.12,9.1 155.56,27.06 43.21,17.97 76.64,41.39 100.3,70.28 23.43,28.88 39.57,58.68 48.21,89.38 8.65,30.7 12.96,77.32 12.96,140.09zm-268.81 -66.64c0,-45.26 -2.5,-73.91 -7.28,-85.51 -5,-11.82 -15.46,-17.74 -31.61,-17.74 -16.15,0 -26.84,5.91 -32.3,17.74 -5.23,11.6 -7.96,40.26 -7.96,85.51l0 399.13c0,41.85 2.73,69.14 7.96,81.65 5.46,12.74 15.92,19.11 31.61,19.11 16.15,0 26.61,-5.69 31.84,-17.29 5.23,-11.6 7.73,-36.39 7.73,-74.59l0 -408zm640.2 -361.15l0 139.19 75.05 0 0 140.55 -75.05 0 0 472.82c0,57.99 3.19,90.52 9.33,97.11 6.14,6.59 31.61,10.01 76.64,10.01l0 141.91 -108.94 0c-61.41,0 -105.3,-2.5 -131.68,-7.73 -26.15,-5 -49.35,-16.83 -69.36,-35.25 -20.02,-18.42 -32.52,-39.34 -37.53,-63.22 -4.78,-23.65 -7.28,-79.37 -7.28,-167.16l0 -448.48 -57.31 0 0 -140.55 57.31 0 0 -139.19 268.81 0zm110.08 1001.58l0 -166.48 60.04 0 0 -746.41 -60.04 0 0 -166.48 302.93 0 0 1079.36 -302.93 0z"/>
  <path class="fil2 str2" d="M1407.3 5411.84c-95.16,0 -179.94,-47.28 -254.06,-142.13 -74.11,-94.55 -111.32,-193.06 -111.32,-294.93 0,-120.17 36.6,-257.41 110.1,-411.74 73.2,-154.33 168.66,-280.29 286.69,-377.58 118.03,-97.3 240.64,-146.09 368.13,-146.09 97.59,0 179.03,11.9 243.99,36.3 64.96,24.09 123.22,58.56 175.07,104 51.85,45.14 86.31,91.8 103.7,139.38 17.08,47.58 25.92,114.37 25.92,200.07 0,81.13 -24.4,175.68 -73.2,284.25 -49.1,108.27 -125.05,214.11 -228.44,317.19 -103.39,103.09 -201.3,177.2 -293.4,222.95 -92.41,45.44 -210.14,68.32 -353.18,68.32zm-201.91 -444.98c0,82.65 26.23,152.5 78.69,208.92 52.46,56.73 113.15,85.09 182.39,85.09 179.94,0 345.25,-82.96 495.91,-248.57 150.67,-165.61 226,-341.29 226,-527.03 0,-71.06 -13.72,-126.87 -41.48,-167.44 -27.75,-40.87 -72.28,-75.94 -133.59,-104.61 -61.3,-28.97 -130.23,-43.31 -206.48,-43.31 -133.59,0 -267.17,90.28 -400.76,271.44 -133.59,181.17 -200.69,356.23 -200.69,525.5zm1480.74 276.93c-29.28,107.36 -56.43,257.72 -82.04,451.39l-25.01 168.66c-4.27,23.79 -15.25,47.58 -33.24,71.06 -17.69,23.48 -34.16,35.38 -49.11,35.38 -18.6,0 -39.34,-9.45 -63.13,-28.06 -23.48,-18.91 -35.07,-33.85 -35.07,-45.14 0,-32.94 7.32,-78.08 22.26,-136.03 108.88,-440.1 163.48,-826.83 163.48,-1159.57l-0.92 -75.03c-1.22,-64.35 10.07,-111.32 33.85,-140.3 24.09,-29.28 51.24,-43.92 82.35,-43.92 14.33,0 28.06,11.28 41.18,33.55 13.11,22.27 19.52,53.98 19.52,95.16 0,57.65 -5.79,127.79 -17.69,209.83 -15.56,103.7 -23.48,163.48 -24.09,178.72 88.76,-154.63 182.69,-275.71 282.12,-362.63 99.43,-86.92 191.84,-130.54 277.24,-130.54 60.09,0 110.71,22.57 152.19,67.4 41.48,45.14 62.22,100.95 62.22,167.75 0,193.97 -74.42,370.56 -223.56,528.85 -148.83,158.59 -294.01,237.59 -434.92,237.59 -35.38,0 -63.13,-8.84 -83.57,-26.53 -20.74,-18 -42.09,-50.63 -64.05,-97.6zm554.78 -719.17c-83.87,0 -187.87,78.69 -311.7,235.76 -123.83,157.38 -185.74,279.68 -185.74,367.21 0,21.65 12.2,42.39 36.6,62.52 24.4,20.43 55.2,30.5 92.72,30.5 85.4,0 183.3,-63.13 294.01,-189.09 111.02,-125.96 166.22,-249.48 166.22,-371.17 0,-43.61 -8.85,-76.86 -26.23,-100.65 -17.69,-23.48 -39.65,-35.07 -65.88,-35.07zm819.51 -78.69c61.3,-4.88 119.25,-10.37 173.24,-17.08 53.68,-5.8 98.51,-8.85 134.2,-8.85 45.14,0 73.81,4.27 85.7,12.5 11.89,8.24 18,22.88 18,43.92 0,48.19 -33.85,74.42 -100.95,78.38 -86.62,5.49 -165.92,12.81 -238.81,22.57 -72.59,9.45 -111.63,17.38 -117.43,23.48 -5.49,6.41 -23.48,77.16 -53.98,212.58 -30.5,135.72 -45.75,223.56 -45.75,264.12 0,65.57 8.85,109.19 25.93,130.84 17.39,21.96 43.31,32.63 77.78,32.63 51.24,0 122.61,-38.43 213.8,-115.29 35.07,-31.41 62.22,-47.28 81.13,-47.28 25.62,0 38.43,13.72 38.43,41.18 0,43 -41.17,98.51 -123.83,166.52 -82.35,68.32 -166.83,102.48 -253.14,102.48 -144.26,0 -216.24,-85.09 -216.24,-254.67 0,-61.31 14.94,-156.46 44.53,-285.17 29.28,-128.09 43.92,-204.95 43.92,-230.57 0,-8.84 -7.32,-13.42 -21.35,-13.42l-93.02 8.23c-76.25,0 -114.37,-30.5 -114.37,-91.19 0,-34.46 17.38,-51.85 52.76,-51.85l183.91 0c12.5,0 23.48,-5.8 33.24,-17.08 9.45,-11.28 23.48,-49.1 41.78,-113.76 18.6,-64.66 35.07,-128.7 49.1,-191.84 14.33,-62.52 42.39,-93.63 84.18,-93.63 25.62,0 45.44,8.85 59.78,26.84 14.33,17.69 21.35,34.46 21.35,50.02 0,8.24 -10.68,50.93 -32.02,127.79l-51.85 187.57zm782 -294.93c-12.51,0 -21.96,-13.42 -28.67,-40.26 -2.44,-8.24 -5.49,-17.39 -9.76,-27.76 -16.17,-38.43 -24.09,-72.28 -24.09,-100.95 0,-23.79 14.03,-47.89 42.39,-72.59 28.36,-24.7 59.78,-37.21 94.24,-37.21 17.39,0 36.6,6.71 58.26,20.13 21.35,13.42 32.02,26.23 32.02,38.73 0,19.83 -7.32,53.07 -21.96,100.34 -14.64,46.97 -37.82,78.69 -69.54,95.16 -32.02,16.17 -56.12,24.4 -72.89,24.4zm-117.12 998.24c0,45.14 6.41,96.07 18.91,152.8 2.44,10.68 3.35,19.52 3.35,26.54 0,10.98 -9.76,24.7 -29.28,41.78 -19.82,16.78 -40.56,25.31 -62.52,25.31 -57.95,0 -86.62,-53.07 -86.62,-158.9 0,-109.8 22.57,-283.03 67.71,-520.01 15.56,-82.96 23.18,-133.89 23.18,-152.8 0,-37.51 7.02,-69.54 20.74,-96.07 13.72,-26.54 32.94,-39.96 57.95,-39.96 30.5,0 54.29,7.32 71.98,21.96 17.69,14.64 26.23,30.8 26.23,48.8 0,17.69 -3.96,41.48 -12.5,70.45 -44.53,157.37 -72.28,269.92 -82.96,337.93 -10.68,67.71 -16.17,148.53 -16.17,242.17zm1033 -508.42c-55.51,1.22 -174.15,165.31 -355.62,492.26 -61.61,110.1 -97.29,170.19 -107.36,179.94 -10.06,9.76 -28.67,18.61 -55.81,26.54 -27.15,7.63 -49.72,11.59 -67.41,11.59 -39.95,0 -60.08,-77.78 -60.08,-233.32 0,-87.54 18.91,-246.13 56.43,-475.48 15.55,-92.72 23.18,-159.2 23.18,-199.16 0,-39.34 17.69,-58.86 52.76,-58.86 66.19,0 99.12,47.58 99.12,142.74 0,44.83 -10.98,132.37 -32.94,262.9 -25.62,148.83 -38.74,239.42 -39.35,271.44 36.91,-35.69 91.19,-114.07 162.56,-234.84 101.26,-165.61 175.98,-270.53 223.86,-315.06 47.88,-44.22 97.6,-66.49 148.83,-66.49 38.74,0 69.54,25.92 92.41,77.77 22.87,51.85 36.91,175.37 41.48,370.87 1.22,48.8 5.79,85.09 13.42,108.88 7.93,23.79 13.42,35.69 17.08,35.69 28.06,0 88.76,-95.16 182.39,-285.78 50.02,-100.65 98.51,-177.2 146.09,-229.66 47.28,-52.46 99.73,-78.69 157.68,-78.69 48.19,0 83.26,25.01 105.22,74.72 22.26,49.71 37.82,123.22 47.57,221.12 8.85,98.82 22.57,189.4 41.48,271.44 18.61,82.35 53.07,135.11 103.09,158.29 34.16,16.17 50.93,34.77 50.93,56.43 0,20.74 -14.33,42.09 -42.7,64.05 -28.67,22.26 -54.9,33.24 -78.69,33.24 -47.88,0 -90.28,-29.28 -127.79,-87.53 -37.51,-58.56 -65.88,-184.83 -84.79,-378.8 -8.54,-78.08 -16.47,-133.59 -24.4,-166.22 -7.63,-32.94 -19.83,-49.41 -36.6,-49.41 -25.01,0 -54.59,24.09 -88.76,71.67 -34.46,47.58 -89.67,144.57 -165.91,290.35 -59.47,113.76 -104.61,189.7 -135.42,227.52 -30.5,37.82 -60.08,56.73 -88.75,56.73 -25.62,0 -48.49,-10.37 -68.93,-30.8 -20.13,-20.74 -32.94,-45.44 -38.43,-74.42 -5.19,-28.67 -10.98,-99.73 -16.77,-212.89 -9.15,-188.18 -25.31,-297.98 -49.11,-328.78zm1970.85 403.81c0,60.7 -53.68,133.89 -161.04,219.9 -107.66,85.7 -218.68,128.4 -333.05,128.4 -95.76,0 -169.88,-28.06 -222.03,-84.79 -52.15,-56.43 -78.08,-135.42 -78.08,-236.67 0,-170.49 57.34,-332.44 172.32,-486.16 114.98,-153.72 240.94,-230.57 377.28,-230.57 44.53,0 81.13,14.64 109.49,43.92 28.06,28.97 42.39,64.35 42.39,105.22 0,91.8 -45.14,179.64 -135.11,263.82 -89.97,83.87 -210.14,166.52 -360.81,247.35 -31.11,16.17 -46.36,36.91 -46.36,62.52 0,49.41 14.03,89.06 42.7,118.94 28.67,29.89 71.06,44.53 126.87,44.53 128.1,0 258.94,-70.76 392.22,-212.58 19.82,-19.52 34.77,-29.59 44.83,-29.59 18.91,0 28.36,15.25 28.36,45.75zm-620.96 -139.38c252.84,-150.06 379.1,-270.83 379.1,-362.03 0,-35.68 -16.16,-53.68 -48.49,-53.68 -54.59,0 -116.51,40.26 -185.44,120.78 -68.62,80.52 -117.11,178.72 -145.17,294.93zm557.52 -904.3c-2.44,1.22 -5.49,3.05 -8.85,5.49 -4.27,2.13 -9.45,4.88 -16.16,7.93 -39.96,18.3 -122.61,75.64 -248.26,171.41 -51.85,39.95 -91.19,68.62 -118.03,86.01l-20.74 12.5c-15.25,0 -28.97,-7.63 -40.87,-22.57 -11.89,-14.64 -17.99,-29.89 -17.99,-45.44 0,-30.5 45.75,-80.21 137.24,-149.14 91.5,-69.23 173.54,-123.83 246.13,-164.39 27.45,-15.56 47.88,-28.98 61.61,-40.26 10.07,-8.24 15.56,-11.59 16.17,-9.76 10.06,0 21.96,10.98 35.38,32.94 13.42,21.96 19.83,39.04 19.83,50.93 0,7.32 -5.49,18.6 -16.78,33.85 -11.28,15.56 -21.04,25.62 -28.67,30.5zm430.65 991.83c6.1,-10.67 13.11,-25.62 21.65,-44.83 40.56,-92.72 77.77,-165.61 111.63,-218.37 33.85,-52.76 71.37,-103.09 112.24,-151.28 40.56,-48.49 78.07,-85.09 111.63,-110.1 33.55,-25.01 64.05,-42.39 91.5,-52.15 27.45,-9.76 53.98,-14.94 79.6,-14.94 51.85,0 93.94,15.86 126.88,46.97 32.63,31.42 49.1,67.71 49.1,109.49 0,18.61 -5.8,35.07 -17.38,50.02 -11.59,14.94 -29.28,22.26 -53.07,22.26 -25.01,0 -48.19,-10.98 -68.93,-32.94 -21.35,-21.96 -43.92,-32.94 -67.1,-32.94 -61.91,0 -147.61,75.03 -257.11,225.08 -109.8,150.06 -176.59,315.36 -200.38,495.92 -5.8,46.36 -17.08,77.16 -33.85,92.11 -16.78,14.64 -40.26,22.27 -70.45,22.27 -29.28,0 -50.32,-21.66 -63.44,-65.27 -13.11,-43.61 -19.82,-116.81 -19.82,-219.9 0,-27.75 1.52,-89.67 4.57,-184.82 3.35,-112.54 10.67,-203.43 21.35,-272.67 1.83,-11.28 4.88,-37.82 8.84,-79.3 4.27,-46.06 9.46,-77.78 15.86,-95.77 6.1,-17.69 18.91,-34.46 38.43,-50.02 19.21,-15.56 40.26,-23.18 62.83,-23.18 21.96,0 38.73,7.01 49.71,21.04 10.98,14.03 16.47,28.97 16.47,45.14 0,23.18 -6.1,55.81 -17.99,98.21 -13.72,46.97 -21.65,79.6 -24.09,97.29 -1.83,20.43 -4.88,41.48 -9.76,63.44 -6.1,25.62 -11.89,93.02 -18,201.91l-0.91 33.24 0 24.09z"/>
 </g>
</svg>
