<?xml version="1.0" encoding="UTF-8"?>
<!DOCTYPE svg PUBLIC "-//W3C//DTD SVG 1.1//EN" "http://www.w3.org/Graphics/SVG/1.1/DTD/svg11.dtd">
<!-- Creator: CorelDRAW 2017 -->
<svg xmlns="http://www.w3.org/2000/svg" xml:space="preserve" width="9.84252in" height="9.84252in" version="1.1" style="shape-rendering:geometricPrecision; text-rendering:geometricPrecision; image-rendering:optimizeQuality; fill-rule:evenodd; clip-rule:evenodd"
viewBox="0 0 9842.52 9842.52"
 xmlns:xlink="http://www.w3.org/1999/xlink">
 <defs>
  <style type="text/css">
   <![CDATA[
    .str0 {stroke:#0C93FC;stroke-width:138.89;stroke-miterlimit:2.61313}
    .str2 {stroke:#201E1E;stroke-width:3;stroke-miterlimit:2.61313}
    .str1 {stroke:#FFC20F;stroke-width:3;stroke-miterlimit:2.61313}
    .fil0 {fill:#0C93FC}
    .fil2 {fill:#201E1E;fill-rule:nonzero}
    .fil1 {fill:#FFC20F;fill-rule:nonzero}
   ]]>
  </style>
 </defs>
 <g id="Layer_x0020_1">
  <metadata id="CorelCorpID_0Corel-Layer"/>
  <circle class="fil0 str0" cx="4921.26" cy="4921.26" r="4527.56"/>
  <g id="_2914590347136">
   <path class="fil1 str1" d="M2843.35 3085.75c-58.25,0 -129.93,-19.52 -215.02,-58.86 -84.79,-39.35 -149.44,-106.14 -194.28,-200.38 -44.53,-93.94 -67.1,-197.63 -67.1,-310.78 0,-68.02 14.94,-182.08 44.83,-342.2 5.49,-29.28 13.11,-75.64 23.18,-139.38 19.22,-126.88 32.33,-203.13 39.65,-228.74 7.63,-25.62 19.22,-46.06 35.38,-61.3 16.16,-15.25 34.77,-22.87 56.42,-22.87 14.94,0 30.19,14.33 46.06,42.7 15.56,28.06 23.48,50.02 23.48,65.57 0,11.89 -13.72,65.88 -40.87,161.65 -14.33,48.19 -29.89,133.59 -46.66,256.19 -16.47,122.3 -25.01,208.61 -25.01,258.63 0,167.13 39.34,280.89 117.42,340.37 78.38,59.47 144.26,89.36 197.02,89.36 102.48,0 189.7,-15.56 261.38,-46.97 71.98,-31.11 126.27,-88.15 163.17,-170.19 36.9,-82.35 63.13,-235.15 78.69,-458.41 15.56,-228.13 34.46,-370.26 56.73,-426.68 22.27,-56.12 53.98,-84.48 95.16,-84.48 40.57,0 60.69,33.24 60.69,99.12 0,56.12 -11.59,147.92 -34.77,275.41 -14.94,78.69 -25.93,170.49 -33.24,276.02 -6.41,83.26 -14.94,156.77 -25.93,220.2 -10.67,63.44 -28.06,116.51 -52.46,158.59 -24.4,42.39 -55.51,82.04 -92.72,118.95 -37.21,36.9 -75.94,69.23 -116.51,97.29 -40.56,28.06 -96.38,50.32 -167.44,66.49 -71.37,16.47 -133.59,24.7 -187.26,24.7zm1523.43 -432.48c-79.6,128.09 -164.39,226.91 -253.75,296.15 -89.36,69.54 -171.41,104.31 -246.43,104.31 -57.95,0 -103.7,-22.26 -137.25,-66.8 -33.55,-44.22 -50.63,-103.39 -50.63,-177.2 0,-150.67 61.31,-305.3 183.61,-463.89 122.61,-158.29 254.67,-237.59 396.49,-237.59 61.91,0 119.25,26.54 172.32,79.61l125.04 -584.37c9.15,-39.95 25.62,-66.79 49.72,-80.52 24.09,-13.72 43,-20.44 56.73,-20.44 41.78,0 62.52,36.91 62.52,110.71 0,13.11 -13.72,61.91 -41.18,146.4 -43.31,131.15 -84.79,292.18 -123.52,483.11 -39.04,190.93 -58.56,344.03 -58.56,459.62 0,119.25 25.93,178.72 77.77,178.72 33.24,0 67.71,-10.98 103.39,-32.94 14.94,-10.67 28.97,-16.16 42.09,-16.16 19.21,0 28.67,12.5 28.67,37.51 0,30.5 -26.84,65.57 -79.91,105.53 -53.37,39.95 -107.97,59.78 -164.09,59.78 -98.2,0 -147.31,-94.55 -147.31,-284.25 0,-32.02 1.22,-64.66 4.27,-97.29zm-117.12 -418.15c-96.38,0 -191.84,65.27 -286.69,196.11 -94.85,130.84 -142.13,251.62 -142.13,362.33 0,74.42 24.7,111.63 74.11,111.63 46.67,0 103.09,-24.4 169.57,-73.2 66.19,-48.8 134.5,-126.57 204.96,-233.63 70.15,-107.05 105.53,-187.26 105.53,-240.94 0,-26.23 -12.2,-53.07 -36.3,-80.82 -24.09,-27.76 -53.68,-41.48 -89.06,-41.48zm864.35 829.27c-4.27,14.94 -15.56,27.45 -34.16,37.52 -18.3,10.06 -36.91,15.25 -55.2,15.25 -60.69,0 -91.19,-44.53 -91.19,-133.28 0,-42.39 14.03,-161.95 42.09,-359.28 17.08,-120.78 25.93,-212.58 25.93,-275.1 0,-10.68 -12.51,-24.7 -37.82,-42.09 -25.62,-16.47 -38.43,-32.94 -38.43,-49.1 0,-25.62 19.52,-53.37 58.25,-82.96 29.89,-23.18 48.19,-49.1 54.9,-77.77 7.02,-28.67 14.64,-68.32 23.79,-118.94 30.19,-184.52 77.77,-317.8 142.43,-399.24 64.66,-81.74 147.01,-122.61 247.04,-122.61 53.07,0 97.9,18 134.81,54.29 37.21,35.99 55.51,80.82 55.51,134.2 0,43.61 -10.37,93.02 -30.8,147.92 -20.44,55.2 -43.92,82.65 -70.15,82.65 -19.52,0 -29.58,-9.76 -29.58,-29.28l6.41 -86.92c0,-114.98 -32.33,-172.32 -96.69,-172.32 -69.54,0 -127.18,68.32 -173.23,204.96 -45.75,136.94 -68.63,247.96 -68.63,333.96 0,27.15 17.69,40.87 53.37,40.87 155.55,0 247.04,-0.61 274.8,-1.83 27.75,-0.91 41.48,10.67 41.48,35.07 0,24.4 -14.94,43 -44.83,55.81 -30.2,12.81 -95.77,24.09 -197.33,34.46 -86.31,8.85 -135.11,16.17 -146.4,22.26 -39.95,221.43 -59.78,419.06 -59.78,592.3 0,51.85 2.44,90.28 7.01,115.29 4.27,23.18 6.41,37.82 6.41,43.92zm1252.6 -873.8c51.85,71.37 77.77,154.02 77.77,248.26 0,154.93 -61.3,298.28 -183.6,430.65 -122.61,132.37 -249.79,198.24 -382.16,198.24 -30.19,0 -59.17,-4.57 -86.61,-14.03l-39.35 57.95c-32.02,45.14 -52.46,68.01 -60.69,68.01 -14.94,0 -30.19,-7.93 -45.75,-23.18 -15.25,-15.55 -23.18,-31.11 -23.18,-46.66 0,-14.33 19.22,-57.65 57.34,-130.54 -55.51,-63.74 -83.26,-141.52 -83.26,-233.93 0,-153.72 51.85,-305.3 155.24,-454.44 103.09,-149.14 226.91,-223.87 371.17,-223.87 43.92,0 85.4,8.85 124.13,25.93 49.41,-64.35 84.48,-96.38 105.52,-96.38 11.9,0 26.84,10.68 44.53,32.02 17.99,21.66 26.84,38.74 26.84,51.85 0,14.94 -19.22,51.54 -57.95,110.1zm-595.04 636.82c7.02,-11.29 14.33,-22.27 22.26,-32.94 108.27,-156.76 202.21,-303.77 281.51,-441.32l19.52 -31.41c22.57,-35.07 40.26,-63.74 52.76,-85.7l11.59 -18.91c-16.17,-5.19 -34.16,-7.93 -54.59,-7.93 -95.77,0 -178.11,58.87 -247.04,176.59 -68.62,117.42 -103.09,229.66 -103.09,336.41 0,40.87 5.49,76.25 17.08,105.22zm499.27 -500.19l-88.45 120.47c-17.69,22.57 -31.72,42.39 -41.78,59.17 -6.1,8.85 -23.18,32.63 -50.93,71.37 -24.7,34.46 -41.48,61 -50.93,79.61 -29.28,59.47 -88.14,147.92 -176.28,265.34 9.76,2.44 19.82,3.66 30.5,3.66 88.76,0 177.81,-48.8 267.17,-146.09 89.36,-97.6 133.89,-205.87 133.89,-324.81 0,-46.67 -7.63,-89.36 -23.18,-128.71zm562.1 341.29c6.1,-10.67 13.11,-25.62 21.65,-44.83 40.56,-92.72 77.77,-165.61 111.63,-218.37 33.85,-52.76 71.37,-103.09 112.24,-151.28 40.56,-48.49 78.07,-85.09 111.63,-110.1 33.55,-25.01 64.05,-42.39 91.5,-52.15 27.45,-9.76 53.98,-14.94 79.6,-14.94 51.85,0 93.94,15.86 126.88,46.97 32.63,31.42 49.1,67.71 49.1,109.49 0,18.61 -5.8,35.07 -17.38,50.02 -11.59,14.94 -29.28,22.26 -53.07,22.26 -25.01,0 -48.19,-10.98 -68.93,-32.94 -21.35,-21.96 -43.92,-32.94 -67.1,-32.94 -61.91,0 -147.61,75.03 -257.11,225.08 -109.8,150.06 -176.59,315.36 -200.38,495.92 -5.8,46.36 -17.08,77.16 -33.85,92.11 -16.78,14.64 -40.26,22.27 -70.45,22.27 -29.28,0 -50.32,-21.66 -63.44,-65.27 -13.11,-43.61 -19.82,-116.81 -19.82,-219.9 0,-27.75 1.52,-89.67 4.57,-184.82 3.35,-112.54 10.67,-203.43 21.35,-272.67 1.83,-11.28 4.88,-37.82 8.84,-79.3 4.27,-46.06 9.46,-77.78 15.86,-95.77 6.1,-17.69 18.91,-34.46 38.43,-50.02 19.21,-15.56 40.26,-23.18 62.83,-23.18 21.96,0 38.73,7.01 49.71,21.04 10.98,14.03 16.47,28.97 16.47,45.14 0,23.18 -6.1,55.81 -17.99,98.21 -13.72,46.97 -21.65,79.6 -24.09,97.29 -1.83,20.43 -4.88,41.48 -9.76,63.44 -6.1,25.62 -11.89,93.02 -18,201.91l-0.91 33.24 0 24.09zm-4431.68 1674.92c-79.6,128.09 -164.39,226.91 -253.75,296.15 -89.36,69.54 -171.41,104.31 -246.43,104.31 -57.95,0 -103.7,-22.26 -137.25,-66.8 -33.55,-44.22 -50.63,-103.39 -50.63,-177.2 0,-150.67 61.31,-305.3 183.61,-463.89 122.61,-158.29 254.67,-237.59 396.49,-237.59 61.91,0 119.25,26.54 172.32,79.61l125.04 -584.37c9.15,-39.95 25.62,-66.79 49.72,-80.52 24.09,-13.72 43,-20.44 56.73,-20.44 41.78,0 62.52,36.91 62.52,110.71 0,13.11 -13.72,61.91 -41.18,146.4 -43.31,131.15 -84.79,292.18 -123.52,483.11 -39.04,190.93 -58.56,344.03 -58.56,459.62 0,119.25 25.93,178.72 77.77,178.72 33.24,0 67.71,-10.98 103.39,-32.94 14.94,-10.67 28.97,-16.16 42.09,-16.16 19.21,0 28.67,12.5 28.67,37.51 0,30.5 -26.84,65.57 -79.91,105.53 -53.37,39.95 -107.97,59.78 -164.09,59.78 -98.2,0 -147.31,-94.55 -147.31,-284.25 0,-32.02 1.22,-64.66 4.27,-97.29zm-117.12 -418.15c-96.38,0 -191.84,65.27 -286.69,196.11 -94.85,130.84 -142.13,251.62 -142.13,362.33 0,74.42 24.7,111.63 74.11,111.63 46.67,0 103.09,-24.4 169.57,-73.2 66.19,-48.8 134.5,-126.57 204.96,-233.63 70.15,-107.05 105.53,-187.26 105.53,-240.94 0,-26.23 -12.2,-53.07 -36.3,-80.82 -24.09,-27.76 -53.68,-41.48 -89.06,-41.48zm1288.59 462.98c-83.26,111.93 -165.92,195.81 -247.35,251.93 -81.74,55.81 -156.46,83.87 -224.48,83.87 -45.75,0 -85.4,-19.21 -118.64,-57.95 -33.55,-38.73 -50.02,-88.44 -50.02,-149.44 0,-156.46 69.84,-325.12 209.83,-505.98 139.99,-180.86 279.07,-271.14 417.23,-271.14 50.02,0 87.23,28.37 111.93,85.7 7.63,18.91 19.82,28.67 36.6,28.67 47.58,0 71.37,18.3 71.37,55.2 0,18.61 -3.05,43.92 -8.85,75.94 -32.33,175.67 -48.19,299.81 -48.19,371.78 0,144.26 27.15,230.57 82.04,259.24 26.23,14.33 39.34,31.72 39.34,52.46 0,18.61 -12.81,37.21 -38.43,56.12 -25.62,18.61 -50.32,28.06 -74.11,28.06 -46.06,0 -83.87,-31.72 -113.46,-94.85 -29.89,-63.13 -44.83,-153.11 -44.83,-269.61zm-54.29 -503.24c-78.69,0 -170.19,73.81 -274.49,221.12 -104.31,147.61 -156.46,269.92 -156.46,366.9 0,68.32 22.87,102.78 68.01,102.78 65.57,0 156.46,-66.19 272.66,-198.55 116.2,-132.06 174.15,-253.75 174.15,-364.46 0,-85.09 -28.06,-127.79 -83.87,-127.79zm1157.74 504.76c-7.01,-5.19 -27.14,11.59 -59.78,50.02 -54.29,63.74 -123.52,120.47 -207.7,169.88 -84.48,49.41 -162.56,74.11 -234.54,74.11 -53.68,0 -95.77,-16.78 -126.26,-50.33 -30.2,-33.85 -45.44,-80.21 -45.44,-139.99 0,-92.11 34.77,-195.2 104.61,-308.65 69.54,-113.46 167.14,-212.58 292.49,-297.06 125.35,-84.48 235.15,-126.88 329.39,-126.88 49.41,0 93.02,14.33 130.54,43 8.84,7.02 16.47,12.81 23.18,17.69 10.67,7.93 20.74,23.48 30.19,46.97 9.76,23.48 14.33,42.39 14.33,56.73 0,8.85 -3.35,22.57 -9.76,41.17 -36.29,98.82 -61,180.86 -74.11,245.52 -13.11,64.96 -27.45,174.45 -43,328.17 -14.33,138.16 -29.59,244.3 -46.36,319.02 -16.78,74.42 -46.67,146.39 -90.28,215.93 -43.61,69.84 -95.77,122 -156.46,157.07 -60.69,34.77 -123.22,52.15 -187.57,52.15 -111.32,0 -221.42,-38.43 -329.69,-115.29 -108.27,-76.86 -162.56,-138.46 -162.56,-184.83 0,-29.28 10.98,-43.92 32.94,-43.92 10.67,0 42.7,17.69 95.77,52.76 139.99,93.63 265.95,140.3 377.88,140.3 97.6,0 172.02,-52.15 222.95,-156.46 50.94,-104.31 85.7,-259.85 104,-467.25 4.27,-46.97 9.15,-86.92 15.25,-119.86zm-1.83 -490.43c-50.63,0 -113.76,26.23 -189.7,78.69 -75.94,52.46 -149.75,129.31 -221.43,230.57 -71.37,101.26 -107.05,186.04 -107.05,254.67 0,23.18 7.32,41.48 21.96,54.9 14.64,13.42 30.81,20.13 48.5,20.13 53.07,0 122.3,-27.45 207.7,-82.35 85.7,-54.59 159.21,-130.84 220.81,-228.13 61.61,-97.59 92.41,-173.84 92.41,-229.35 0,-66.18 -24.4,-99.12 -73.2,-99.12zm733.5 -698.73c43,0 64.35,27.45 64.35,82.35 0,48.8 -25.93,165 -77.78,348.3 -32.63,115.59 -57.94,243.08 -75.94,382.46 -18,139.38 -26.84,248.57 -26.84,327.87 0,98.2 6.41,196.11 18.91,293.09 2.44,18.61 3.35,32.02 3.35,40.26 0,29.89 -10.07,55.51 -30.19,76.86 -20.44,21.35 -41.79,32.02 -64.35,32.02 -31.72,0 -53.37,-19.52 -65.57,-58.86 -12.2,-39.35 -18.3,-102.78 -18.3,-190.31 0,-199.46 23.79,-446.81 71.67,-741.74 48.19,-294.62 86.31,-467.25 114.37,-517.26 28.36,-50.02 57.03,-75.03 86.31,-75.03zm498.66 316.28c-12.51,0 -21.96,-13.42 -28.67,-40.26 -2.44,-8.24 -5.49,-17.39 -9.76,-27.76 -16.17,-38.43 -24.09,-72.28 -24.09,-100.95 0,-23.79 14.03,-47.89 42.39,-72.59 28.36,-24.7 59.78,-37.21 94.24,-37.21 17.39,0 36.6,6.71 58.26,20.13 21.35,13.42 32.02,26.23 32.02,38.73 0,19.83 -7.32,53.07 -21.96,100.34 -14.64,46.97 -37.82,78.69 -69.54,95.16 -32.02,16.17 -56.12,24.4 -72.89,24.4zm-117.12 998.24c0,45.14 6.41,96.07 18.91,152.8 2.44,10.68 3.35,19.52 3.35,26.54 0,10.98 -9.76,24.7 -29.28,41.78 -19.82,16.78 -40.56,25.31 -62.52,25.31 -57.95,0 -86.62,-53.07 -86.62,-158.9 0,-109.8 22.57,-283.03 67.71,-520.01 15.56,-82.96 23.18,-133.89 23.18,-152.8 0,-37.51 7.02,-69.54 20.74,-96.07 13.72,-26.54 32.94,-39.96 57.95,-39.96 30.5,0 54.29,7.32 71.98,21.96 17.69,14.64 26.23,30.8 26.23,48.8 0,17.69 -3.96,41.48 -12.5,70.45 -44.53,157.37 -72.28,269.92 -82.96,337.93 -10.68,67.71 -16.17,148.53 -16.17,242.17zm990 -125.35c-7.01,-5.19 -27.14,11.59 -59.78,50.02 -54.29,63.74 -123.52,120.47 -207.7,169.88 -84.48,49.41 -162.56,74.11 -234.54,74.11 -53.68,0 -95.77,-16.78 -126.26,-50.33 -30.2,-33.85 -45.44,-80.21 -45.44,-139.99 0,-92.11 34.77,-195.2 104.61,-308.65 69.54,-113.46 167.14,-212.58 292.49,-297.06 125.35,-84.48 235.15,-126.88 329.39,-126.88 49.41,0 93.02,14.33 130.54,43 8.84,7.02 16.47,12.81 23.18,17.69 10.67,7.93 20.74,23.48 30.19,46.97 9.76,23.48 14.33,42.39 14.33,56.73 0,8.85 -3.35,22.57 -9.76,41.17 -36.29,98.82 -61,180.86 -74.11,245.52 -13.11,64.96 -27.45,174.45 -43,328.17 -14.33,138.16 -29.59,244.3 -46.36,319.02 -16.78,74.42 -46.67,146.39 -90.28,215.93 -43.61,69.84 -95.77,122 -156.46,157.07 -60.69,34.77 -123.22,52.15 -187.57,52.15 -111.32,0 -221.42,-38.43 -329.69,-115.29 -108.27,-76.86 -162.56,-138.46 -162.56,-184.83 0,-29.28 10.98,-43.92 32.94,-43.92 10.67,0 42.7,17.69 95.77,52.76 139.99,93.63 265.95,140.3 377.88,140.3 97.6,0 172.02,-52.15 222.95,-156.46 50.94,-104.31 85.7,-259.85 104,-467.25 4.27,-46.97 9.15,-86.92 15.25,-119.86zm-1.83 -490.43c-50.63,0 -113.76,26.23 -189.7,78.69 -75.94,52.46 -149.75,129.31 -221.43,230.57 -71.37,101.26 -107.05,186.04 -107.05,254.67 0,23.18 7.32,41.48 21.96,54.9 14.64,13.42 30.81,20.13 48.5,20.13 53.07,0 122.3,-27.45 207.7,-82.35 85.7,-54.59 159.21,-130.84 220.81,-228.13 61.61,-97.59 92.41,-173.84 92.41,-229.35 0,-66.18 -24.4,-99.12 -73.2,-99.12zm1185.5 511.17c0,60.7 -53.68,133.89 -161.04,219.9 -107.66,85.7 -218.68,128.4 -333.05,128.4 -95.76,0 -169.88,-28.06 -222.03,-84.79 -52.15,-56.43 -78.08,-135.42 -78.08,-236.67 0,-170.49 57.34,-332.44 172.32,-486.16 114.98,-153.72 240.94,-230.57 377.28,-230.57 44.53,0 81.13,14.64 109.49,43.92 28.06,28.97 42.39,64.35 42.39,105.22 0,91.8 -45.14,179.64 -135.11,263.82 -89.97,83.87 -210.14,166.52 -360.81,247.35 -31.11,16.17 -46.36,36.91 -46.36,62.52 0,49.41 14.03,89.06 42.7,118.94 28.67,29.89 71.06,44.53 126.87,44.53 128.1,0 258.94,-70.76 392.22,-212.58 19.82,-19.52 34.77,-29.59 44.83,-29.59 18.91,0 28.36,15.25 28.36,45.75zm-620.96 -139.38c252.84,-150.06 379.1,-270.83 379.1,-362.03 0,-35.68 -16.16,-53.68 -48.49,-53.68 -54.59,0 -116.51,40.26 -185.44,120.78 -68.62,80.52 -117.11,178.72 -145.17,294.93zm-5738.42 2176.93c-81.43,0 -148.83,-30.8 -201.9,-92.72 -53.07,-61.91 -79.6,-138.46 -79.6,-229.66 0,-153.72 51.85,-305.3 155.24,-454.44 103.09,-149.14 226.91,-223.87 371.17,-223.87 95.16,0 172.63,36.6 231.8,110.1 59.17,73.2 89.06,160.43 89.06,261.69 0,154.93 -61.3,298.28 -183.6,430.65 -122.61,132.37 -249.79,198.24 -382.16,198.24zm-124.13 -345.56c0,60.08 12.5,109.19 37.82,147.31 25.31,38.13 58.86,57.34 100.65,57.34 88.76,0 177.81,-48.8 267.17,-146.09 89.36,-97.6 133.89,-205.87 133.89,-324.81 0,-73.5 -17.08,-132.67 -51.24,-178.42 -34.16,-45.44 -80.21,-68.32 -138.16,-68.32 -95.77,0 -178.11,58.87 -247.04,176.59 -68.62,117.42 -103.09,229.66 -103.09,336.41zm1070.52 197.33c-29.28,107.36 -56.43,257.72 -82.04,451.39l-25.01 168.66c-4.27,23.79 -15.25,47.58 -33.24,71.06 -17.69,23.48 -34.16,35.38 -49.11,35.38 -18.6,0 -39.34,-9.45 -63.13,-28.06 -23.48,-18.91 -35.07,-33.85 -35.07,-45.14 0,-32.94 7.32,-78.08 22.26,-136.03 108.88,-440.1 163.48,-826.83 163.48,-1159.57l-0.92 -75.03c-1.22,-64.35 10.07,-111.32 33.85,-140.3 24.09,-29.28 51.24,-43.92 82.35,-43.92 14.33,0 28.06,11.28 41.18,33.55 13.11,22.27 19.52,53.98 19.52,95.16 0,57.65 -5.79,127.79 -17.69,209.83 -15.56,103.7 -23.48,163.48 -24.09,178.72 88.76,-154.63 182.69,-275.71 282.12,-362.63 99.43,-86.92 191.84,-130.54 277.24,-130.54 60.09,0 110.71,22.57 152.19,67.4 41.48,45.14 62.22,100.95 62.22,167.75 0,193.97 -74.42,370.56 -223.56,528.85 -148.83,158.59 -294.01,237.59 -434.92,237.59 -35.38,0 -63.13,-8.84 -83.57,-26.53 -20.74,-18 -42.09,-50.63 -64.05,-97.6zm554.78 -719.17c-83.87,0 -187.87,78.69 -311.7,235.76 -123.83,157.38 -185.74,279.68 -185.74,367.21 0,21.65 12.2,42.39 36.6,62.52 24.4,20.43 55.2,30.5 92.72,30.5 85.4,0 183.3,-63.13 294.01,-189.09 111.02,-125.96 166.22,-249.48 166.22,-371.17 0,-43.61 -8.85,-76.86 -26.23,-100.65 -17.69,-23.48 -39.65,-35.07 -65.88,-35.07zm1087.6 499.27c-7.01,-5.19 -27.14,11.59 -59.78,50.02 -54.29,63.74 -123.52,120.47 -207.7,169.88 -84.48,49.41 -162.56,74.11 -234.54,74.11 -53.68,0 -95.77,-16.78 -126.26,-50.33 -30.2,-33.85 -45.44,-80.21 -45.44,-139.99 0,-92.11 34.77,-195.2 104.61,-308.65 69.54,-113.46 167.14,-212.58 292.49,-297.06 125.35,-84.48 235.15,-126.88 329.39,-126.88 49.41,0 93.02,14.33 130.54,43 8.84,7.02 16.47,12.81 23.18,17.69 10.67,7.93 20.74,23.48 30.19,46.97 9.76,23.48 14.33,42.39 14.33,56.73 0,8.85 -3.35,22.57 -9.76,41.17 -36.29,98.82 -61,180.86 -74.11,245.52 -13.11,64.96 -27.45,174.45 -43,328.17 -14.33,138.16 -29.59,244.3 -46.36,319.02 -16.78,74.42 -46.67,146.39 -90.28,215.93 -43.61,69.84 -95.77,122 -156.46,157.07 -60.69,34.77 -123.22,52.15 -187.57,52.15 -111.32,0 -221.42,-38.43 -329.69,-115.29 -108.27,-76.86 -162.56,-138.46 -162.56,-184.83 0,-29.28 10.98,-43.92 32.94,-43.92 10.67,0 42.7,17.69 95.77,52.76 139.99,93.63 265.95,140.3 377.88,140.3 97.6,0 172.02,-52.15 222.95,-156.46 50.94,-104.31 85.7,-259.85 104,-467.25 4.27,-46.97 9.15,-86.92 15.25,-119.86zm-1.83 -490.43c-50.63,0 -113.76,26.23 -189.7,78.69 -75.94,52.46 -149.75,129.31 -221.43,230.57 -71.37,101.26 -107.05,186.04 -107.05,254.67 0,23.18 7.32,41.48 21.96,54.9 14.64,13.42 30.81,20.13 48.5,20.13 53.07,0 122.3,-27.45 207.7,-82.35 85.7,-54.59 159.21,-130.84 220.81,-228.13 61.61,-97.59 92.41,-173.84 92.41,-229.35 0,-66.18 -24.4,-99.12 -73.2,-99.12zm1022.94 488.9c-83.26,111.93 -165.92,195.81 -247.35,251.93 -81.74,55.81 -156.46,83.87 -224.48,83.87 -45.75,0 -85.4,-19.21 -118.64,-57.95 -33.55,-38.73 -50.02,-88.44 -50.02,-149.44 0,-156.46 69.84,-325.12 209.83,-505.98 139.99,-180.86 279.07,-271.14 417.23,-271.14 50.02,0 87.23,28.37 111.93,85.7 7.63,18.91 19.82,28.67 36.6,28.67 47.58,0 71.37,18.3 71.37,55.2 0,18.61 -3.05,43.92 -8.85,75.94 -32.33,175.67 -48.19,299.81 -48.19,371.78 0,144.26 27.15,230.57 82.04,259.24 26.23,14.33 39.34,31.72 39.34,52.46 0,18.61 -12.81,37.21 -38.43,56.12 -25.62,18.61 -50.32,28.06 -74.11,28.06 -46.06,0 -83.87,-31.72 -113.46,-94.85 -29.89,-63.13 -44.83,-153.11 -44.83,-269.61zm-54.29 -503.24c-78.69,0 -170.19,73.81 -274.49,221.12 -104.31,147.61 -156.46,269.92 -156.46,366.9 0,68.32 22.87,102.78 68.01,102.78 65.57,0 156.46,-66.19 272.66,-198.55 116.2,-132.06 174.15,-253.75 174.15,-364.46 0,-85.09 -28.06,-127.79 -83.87,-127.79zm697.51 839.03c1.22,-34.46 -24.09,-123.83 -75.94,-268.09 -98.21,-268.7 -147.31,-455.66 -147.31,-561.19 0,-83.87 28.06,-125.96 83.87,-125.96 54.9,0 82.35,37.52 82.35,112.54 0,61.61 1.83,108.57 5.8,141.82 3.66,32.94 17.99,93.33 42.39,181.47 24.4,87.83 51.24,169.27 80.52,244.3 14.64,39.35 25.62,69.24 32.02,90.28 12.51,-19.22 28.67,-45.44 48.19,-78.69 104.92,-176.28 188.48,-312.31 250.7,-407.47 62.22,-95.46 113.15,-164.69 152.19,-208.31 39.35,-43.31 68.32,-69.54 86.93,-78.08 18.3,-8.54 37.21,-13.11 56.12,-13.11 23.18,0 41.48,8.54 54.9,25.01 13.42,16.78 20.13,35.99 20.13,57.34 0,28.06 -24.4,58.25 -73.2,91.19 -45.75,30.8 -113.46,108.57 -202.82,233.01 -89.36,124.74 -185.74,283.34 -289.43,476.4 -53.07,97.6 -93.94,146.4 -122.61,146.4 -25.01,0 -53.07,-19.52 -84.79,-58.87zm1592.06 -313.53c0,60.7 -53.68,133.89 -161.04,219.9 -107.66,85.7 -218.68,128.4 -333.05,128.4 -95.76,0 -169.88,-28.06 -222.03,-84.79 -52.15,-56.43 -78.08,-135.42 -78.08,-236.67 0,-170.49 57.34,-332.44 172.32,-486.16 114.98,-153.72 240.94,-230.57 377.28,-230.57 44.53,0 81.13,14.64 109.49,43.92 28.06,28.97 42.39,64.35 42.39,105.22 0,91.8 -45.14,179.64 -135.11,263.82 -89.97,83.87 -210.14,166.52 -360.81,247.35 -31.11,16.17 -46.36,36.91 -46.36,62.52 0,49.41 14.03,89.06 42.7,118.94 28.67,29.89 71.06,44.53 126.87,44.53 128.1,0 258.94,-70.76 392.22,-212.58 19.82,-19.52 34.77,-29.59 44.83,-29.59 18.91,0 28.36,15.25 28.36,45.75zm-620.96 -139.38c252.84,-150.06 379.1,-270.83 379.1,-362.03 0,-35.68 -16.16,-53.68 -48.49,-53.68 -54.59,0 -116.51,40.26 -185.44,120.78 -68.62,80.52 -117.11,178.72 -145.17,294.93z"/>
   <path class="fil1 str1" d="M7816.09 6048.85c6.1,-10.67 13.11,-25.62 21.65,-44.83 40.56,-92.72 77.77,-165.61 111.63,-218.37 33.85,-52.76 71.37,-103.09 112.24,-151.28 40.56,-48.49 78.07,-85.09 111.63,-110.1 33.55,-25.01 64.05,-42.39 91.5,-52.15 27.45,-9.76 53.98,-14.94 79.6,-14.94 51.85,0 93.94,15.86 126.88,46.97 32.63,31.42 49.1,67.71 49.1,109.49 0,18.61 -5.8,35.07 -17.38,50.02 -11.59,14.94 -29.28,22.26 -53.07,22.26 -25.01,0 -48.19,-10.98 -68.93,-32.94 -21.35,-21.96 -43.92,-32.94 -67.1,-32.94 -61.91,0 -147.61,75.03 -257.11,225.08 -109.8,150.06 -176.59,315.36 -200.38,495.92 -5.8,46.36 -17.08,77.16 -33.85,92.11 -16.78,14.64 -40.26,22.27 -70.45,22.27 -29.28,0 -50.32,-21.66 -63.44,-65.27 -13.11,-43.61 -19.82,-116.81 -19.82,-219.9 0,-27.75 1.52,-89.67 4.57,-184.82 3.35,-112.54 10.67,-203.43 21.35,-272.67 1.83,-11.28 4.88,-37.82 8.84,-79.3 4.27,-46.06 9.46,-77.78 15.86,-95.77 6.1,-17.69 18.91,-34.46 38.43,-50.02 19.21,-15.56 40.26,-23.18 62.83,-23.18 21.96,0 38.73,7.01 49.71,21.04 10.98,14.03 16.47,28.97 16.47,45.14 0,23.18 -6.1,55.81 -17.99,98.21 -13.72,46.97 -21.65,79.6 -24.09,97.29 -1.83,20.43 -4.88,41.48 -9.76,63.44 -6.1,25.62 -11.89,93.02 -18,201.91l-0.91 33.24 0 24.09z"/>
  </g>
  <path class="fil2 str2" d="M2310.23 7244.19l0 152.89 -55.14 0 0 685.48 55.14 0 0 152.89 -278.2 0 0 -991.25 278.2 0zm75.4 0l436.1 0 0 198 -177.94 0 0 189.22 157.9 0 0 187.98 -157.9 0 0 416.05 -258.15 0 0 -991.25zm745.63 0l0 991.25 -254.39 0 0 -991.25 254.39 0zm647.88 464.3l0 199.04c0,73.1 -3.76,126.57 -11.07,160.82 -7.31,34.04 -22.98,65.79 -47,95.45 -24.02,29.66 -54.93,51.38 -92.73,65.58 -37.8,13.99 -81.04,21.09 -129.91,21.09 -54.72,0 -101.09,-6.06 -138.89,-17.96 -38.01,-12.11 -67.46,-30.28 -88.35,-54.51 -21.09,-24.44 -36.13,-53.89 -45.11,-88.35 -8.98,-34.46 -13.37,-86.26 -13.37,-155.19l0 -208.23c0,-75.61 8.15,-134.5 24.44,-177.11 16.29,-42.4 45.74,-76.44 88.14,-102.13 42.4,-25.69 96.7,-38.64 162.7,-38.64 55.35,0 102.97,8.35 142.86,24.85 39.68,16.5 70.38,38.01 92.11,64.54 21.51,26.53 36.34,53.89 44.28,82.08 7.94,28.2 11.91,71.01 11.91,128.66zm-246.87 -61.2c0,-41.56 -2.3,-67.88 -6.69,-78.53 -4.59,-10.86 -14.2,-16.29 -29.03,-16.29 -14.83,0 -24.65,5.43 -29.66,16.29 -4.8,10.65 -7.31,36.97 -7.31,78.53l0 366.55c0,38.43 2.51,63.49 7.31,74.98 5.01,11.69 14.62,17.54 29.03,17.54 14.83,0 24.44,-5.22 29.24,-15.87 4.8,-10.65 7.1,-33.42 7.1,-68.5l0 -374.7zm1126.8 -223.9l-97.96 812.05 -268.8 0c-13.79,-99.21 -30.91,-230.16 -51.17,-392.87 -7.73,71.64 -17.54,143.7 -29.66,216.17l-26.31 176.7 -267.55 0 -104.43 -812.05 211.57 0c2.51,21.3 20.68,176.49 54.72,465.76 3.55,-30.08 21.72,-185.47 54.93,-465.76l204.89 0 50.96 465.76c8.15,-136.18 26.94,-291.57 56.39,-465.76l212.41 0zm48.24 -179.2l182.33 0c121.56,0 203.85,4.59 246.87,13.99 43.02,9.4 78.11,33.42 105.26,72.06 27.15,38.43 40.73,100.04 40.73,184.42 0,77.07 -9.61,128.87 -28.82,155.39 -19.01,26.52 -56.81,42.4 -113.2,47.62 50.96,12.74 85.42,29.66 102.97,50.96 17.54,21.09 28.4,40.72 32.58,58.48 4.39,17.75 6.48,66.63 6.48,146.62l0 261.7 -239.35 0 0 -329.79c0,-53.05 -4.18,-85.84 -12.53,-98.58 -8.15,-12.74 -29.87,-19.01 -65.16,-19.01l0 447.38 -258.15 0 0 -991.25zm258.15 169.18l0 220.56c28.82,0 48.87,-3.97 60.36,-11.91 11.49,-7.94 17.33,-33.83 17.33,-77.49l0 -54.51c0,-31.54 -5.64,-52.21 -16.71,-62.03 -11.07,-9.81 -31.54,-14.62 -60.98,-14.62zm968.06 295.12l0 199.04c0,73.1 -3.76,126.57 -11.07,160.82 -7.31,34.04 -22.98,65.79 -47,95.45 -24.02,29.66 -54.93,51.38 -92.73,65.58 -37.8,13.99 -81.04,21.09 -129.91,21.09 -54.72,0 -101.09,-6.06 -138.89,-17.96 -38.01,-12.11 -67.46,-30.28 -88.35,-54.51 -21.09,-24.44 -36.13,-53.89 -45.11,-88.35 -8.98,-34.46 -13.37,-86.26 -13.37,-155.19l0 -208.23c0,-75.61 8.15,-134.5 24.44,-177.11 16.29,-42.4 45.74,-76.44 88.14,-102.13 42.4,-25.69 96.7,-38.64 162.7,-38.64 55.35,0 102.97,8.35 142.86,24.85 39.68,16.5 70.38,38.01 92.11,64.54 21.51,26.53 36.34,53.89 44.28,82.08 7.94,28.2 11.91,71.01 11.91,128.66zm-246.87 -61.2c0,-41.56 -2.3,-67.88 -6.69,-78.53 -4.59,-10.86 -14.2,-16.29 -29.03,-16.29 -14.83,0 -24.65,5.43 -29.66,16.29 -4.8,10.65 -7.31,36.97 -7.31,78.53l0 366.55c0,38.43 2.51,63.49 7.31,74.98 5.01,11.69 14.62,17.54 29.03,17.54 14.83,0 24.44,-5.22 29.24,-15.87 4.8,-10.65 7.1,-33.42 7.1,-68.5l0 -374.7zm575.41 -403.1l0 234.97c20.47,-23.81 43.23,-41.56 68.51,-53.26 25.06,-11.7 52.42,-17.54 81.87,-17.54 33.83,0 63.29,5.22 88.35,15.87 24.85,10.65 43.86,25.48 57.02,44.69 13.16,19.22 20.89,38.01 23.6,56.39 2.72,18.38 3.97,57.65 3.97,117.59l0 366.34c0,59.53 -3.97,104.02 -11.91,133.05 -8.15,29.24 -26.73,54.51 -56.18,76.02 -29.66,21.51 -64.54,32.17 -105.06,32.17 -29.03,0 -56.18,-6.48 -81.45,-19.22 -25.06,-12.74 -48.25,-31.75 -69.13,-57.23l-15.87 61.41 -230.58 0 0 -991.25 246.87 0zm76.44 409.78c0,-41.98 -2.71,-69.34 -8.14,-82.29 -5.22,-12.74 -15.87,-19.22 -31.54,-19.22 -15.46,0 -25.27,5.64 -29.87,16.92 -4.59,11.07 -6.89,39.48 -6.89,84.59l0 350.26c0,43.65 2.51,71.64 7.73,83.75 5.22,12.32 15.46,18.38 30.91,18.38 15.67,0 25.9,-6.27 30.7,-19.01 4.8,-12.53 7.1,-43.02 7.1,-91.06l0 -342.32zm886.61 54.51l0 199.04c0,73.1 -3.76,126.57 -11.07,160.82 -7.31,34.04 -22.98,65.79 -47,95.45 -24.02,29.66 -54.93,51.38 -92.73,65.58 -37.8,13.99 -81.04,21.09 -129.91,21.09 -54.72,0 -101.09,-6.06 -138.89,-17.96 -38.01,-12.11 -67.46,-30.28 -88.35,-54.51 -21.09,-24.44 -36.13,-53.89 -45.11,-88.35 -8.98,-34.46 -13.37,-86.26 -13.37,-155.19l0 -208.23c0,-75.61 8.15,-134.5 24.44,-177.11 16.29,-42.4 45.74,-76.44 88.14,-102.13 42.4,-25.69 96.7,-38.64 162.7,-38.64 55.35,0 102.97,8.35 142.86,24.85 39.68,16.5 70.38,38.01 92.11,64.54 21.51,26.53 36.34,53.89 44.28,82.08 7.94,28.2 11.91,71.01 11.91,128.66zm-246.87 -61.2c0,-41.56 -2.3,-67.88 -6.69,-78.53 -4.59,-10.86 -14.2,-16.29 -29.03,-16.29 -14.83,0 -24.65,5.43 -29.66,16.29 -4.8,10.65 -7.31,36.97 -7.31,78.53l0 366.55c0,38.43 2.51,63.49 7.31,74.98 5.01,11.69 14.62,17.54 29.03,17.54 14.83,0 24.44,-5.22 29.24,-15.87 4.8,-10.65 7.1,-33.42 7.1,-68.5l0 -374.7zm587.94 -331.67l0 127.82 68.93 0 0 129.07 -68.93 0 0 434.22c0,53.26 2.93,83.13 8.56,89.18 5.64,6.06 29.03,9.19 70.39,9.19l0 130.33 -100.04 0c-56.39,0 -96.7,-2.3 -120.93,-7.1 -24.02,-4.59 -45.32,-15.45 -63.7,-32.37 -18.38,-16.92 -29.87,-36.13 -34.46,-58.06 -4.39,-21.72 -6.68,-72.89 -6.68,-153.51l0 -411.87 -52.63 0 0 -129.07 52.63 0 0 -127.82 246.87 0zm101.09 919.82l0 -152.89 55.14 0 0 -685.48 -55.14 0 0 -152.89 278.2 0 0 991.25 -278.2 0z"/>
 </g>
</svg>
